<svg version="1.2" xmlns="http://www.w3.org/2000/svg" viewBox="0 0 512 512" width="512" height="512">
	<title>temple-grec_adobe_express-svg</title>
	<style>
		.s0 { fill: #2c3e50 } 
		.s1 { fill: #84b5cb } 
		.s2 { fill: #547580 } 
		.s3 { fill: #7f6e5d } 
		.s4 { fill: #2c2f38 } 
		.s5 { fill: #cbb292 } 
	</style>
	<path id="Layer" class="s0" d="m513 478q0 17.5 0 35-256 0-512 0c0-11.4 0-22.7 0.3-34.5 4.6-5.7 9.7-9.7 17-10.3 1.9 0.4 3.6 0.7 5.2 0.7q233.4 0.1 466.8 0c1.9 0 3.9-0.6 6.2-0.9 4.4 2.3 8.6 4.4 12.6 6.7 1.5 0.8 2.6 2.2 3.9 3.3z"/>
	<path id="Layer" class="s1" d="m248 1c5.7 0 11.4 0 17.2 0.3 6.5 2.8 12.9 5.5 19.4 7.9 33.1 12.5 66.3 24.9 99.5 37.4q36.1 13.5 72.2 27.1c13.6 5.1 27.2 10.2 40.3 15.3-1.6 0-2.8 0.1-4 0.1q-235.6 0-471.2 0c-1.5 0-3-0.1-4.3-0.5 9.7-3.8 19.3-7.1 28.9-10.7q31.6-11.7 63.1-23.5c26.2-9.8 52.4-19.6 78.5-29.4 19.7-7.4 39.4-14.7 59.1-22.1 0.6-0.2 0.9-1.2 1.3-1.9z"/>
	<path id="Layer" class="s2" d="m16.9 89c1.5 0 3 0.1 4.5 0.1q235.6 0 471.2 0c1.2 0 2.4-0.1 4.4-0.1 6.3-0.6 11.4 0.2 16 3 0 9.7 0 19.4-0.4 29.4-5.1 4.3-10.9 3.6-17 3.6-2.1-0.1-3.8-0.1-5.4-0.1q-233.2 0-466.3 0c-2 0-4 0.1-6.4 0.2-6.2 0.6-11.4-0.8-16.5-3.1 0-9.7 0-19.4 0.4-29.4 4.6-4.8 10.3-3.4 15.5-3.6z"/>
	<path id="Layer" class="s2" d="m18.3 468.2c-0.4-7.7-0.3-15.2-0.3-22.6 0-14.8 6.8-21.6 21.6-21.6 0.8 0 1.6 0 3.3 0.1 7.9 0.3 15 0.5 22.5 0.7 10.1 0.1 19.8 0.2 29.5 0.1 1.8 0 3.5-0.7 5.7-1 22.1 0.1 43.7 0 65.8 0.2 7.6 0.2 14.9 0.4 22.7 0.6 9.6 0.1 18.7 0.2 27.8 0.2 2.1 0 4.1-0.7 6.7-1 22.4 0.1 44.4 0 66.7 0.3 7.3 0.3 14.4 0.4 21.9 0.5 9.5 0.1 18.6 0.3 27.7 0.2 2.1 0 4.1-0.7 6.7-1 22.4 0.1 44.4 0 66.7 0.2 7.4 0.4 14.5 0.5 22 0.7 10.2 0.1 20 0.2 29.7 0.1 1.6-0.1 3.2-1.2 4.8-1.9 4 0.6 7.9 1.3 11.9 1.9 9.6 1.4 14.1 9.8 14.3 17.8 0.1 8.1 0 16.2 0.1 24.8-1.9 0.8-3.9 1.4-5.8 1.4q-233.4 0.1-466.8 0c-1.6 0-3.3-0.3-5.2-0.7z"/>
	<path id="Layer" class="s0" d="m27.2 166.9c-6.6-4.2-9.4-10.3-9.2-18 0.1-7.6 0-15.3-0.1-23.3 2-0.6 4-0.7 6-0.7q233.1 0 466.3 0c1.6 0 3.3 0 5.4 0.1 0.5 8.5 0.5 16.9 0.4 25.3-0.2 6.8-2.7 12.5-9.3 16.4-6.2 1-11.8 2.1-17.4 2.2-23.8 0.2-47.6 0.1-71.9 0.1-11.7 0-23 0-34.8 0-29.9 0-59.3 0.1-89.2 0-11.4 0-22.3 0.1-33.8 0-29.9 0-59.3 0.1-89.2 0-11.7 0-23 0.1-34.8 0-22.5 0-44.6 0.2-66.7-0.1-7.3-0.1-14.5-1.3-21.7-2z"/>
	<path id="Layer" class="s3" d="m469.9 422.6c-1.7 1.1-3.3 2.2-4.9 2.3-9.7 0.1-19.5 0-29.7-0.5 2-28.6 5.2-56.7 6.4-84.9 1.7-42.3-1-84.5-6.3-126.5 10.1 0 19.7-0.1 29.3 0 1.7 0 3.4 0.7 5.2 1.1 1.3 12.4 2.7 24.8 4 37.3 0.5 4.6 0.9 9.2 1.1 13.8 0.4 10.6 0.7 21.2 1 31.8 0.3 9.3 1.1 18.6 0.9 27.9-0.3 16.7-0.8 33.4-2 50.1-1.2 15.7-3.3 31.4-5 47.6z"/>
	<path id="Layer" class="s4" d="m470.1 213.8c-2-0.1-3.7-0.8-5.4-0.8-9.6-0.1-19.2 0-29.7-0.1-8 0-15 0.1-22.4 0.1-9.8-2.6-14.5-8.6-14.6-18.1q-0.1-12.9-0.1-25.8c23.8-0.1 47.6 0 71.4-0.2 5.6-0.1 11.2-1.2 17.1-1.9 0.5 10 0.7 20.1 0.5 30.2-0.1 7.8-6 13.3-16.8 16.6z"/>
	<path id="Layer" class="s5" d="m64.9 424.8c-7-0.2-14.1-0.4-21.6-0.7-1.2-8-2.1-15.7-3-23.5-0.5-3.9-1.1-7.8-1.3-11.7-0.7-14-1.5-28-2-42-0.5-14.2-1.1-28.5-0.9-42.7 0.2-14.7 0.9-29.4 2-44 1.2-15.5 3.3-30.9 5.4-46.8 7.8-0.4 15-0.3 22.3 0.3 1.2 12.3 2.9 24.2 3.6 36.1 1.3 23.4 3 46.8 3 70.2-0.1 24.2-1.9 48.5-3.5 72.7-0.7 10.7-2.6 21.4-4 32.1z"/>
	<path id="Layer" class="s4" d="m65.8 213.2c-7.3-0.1-14.5-0.2-22.3-0.2-10.7-1.7-16.5-8.5-16.5-18.7 0-8.8 0-17.6 0.1-26.9 7.3 0.2 14.5 1.4 21.8 1.5 22.1 0.3 44.2 0.1 66.7 0.6 0.4 9.1 0.5 17.8 0.4 26.4-0.1 8.7-6.2 16.5-16.4 17.1-11.6 0-22.7 0.1-33.8 0.2z"/>
	<path id="Layer" class="s3" d="m106.9 314.9c0 2.8 0.1 5.5-0.2 9.1-0.4 8.2-0.5 15.6-0.7 23.1-2 25.3-3.9 50.6-5.9 76.3-1.7 0.8-3.4 1.5-5.2 1.5-9.7 0.1-19.4 0-29.5-0.1 0.9-10.7 2.8-21.4 3.5-32.1 1.6-24.2 3.4-48.5 3.5-72.7 0-23.4-1.7-46.8-3-70.2-0.7-11.9-2.4-23.8-3.6-36.1 11.1-0.6 22.2-0.7 33.8-0.7 1.6 10.6 2.7 21.2 3.8 31.7 0.5 4.9 1.3 9.8 1.5 14.7 0.5 9.8 0.8 19.7 1.1 30.5 0.3 9 0.6 17 0.9 25z"/>
	<path id="Layer" class="s5" d="m413.3 424.1c-2-17.3-4.4-34.3-5.1-51.5-1.3-27.9-2.1-55.9-2-83.9 0.1-16.2 2.4-32.4 3.8-48.6 0.8-8.8 2-17.5 3-26.7 7-0.4 14-0.5 21.5-0.4 6.2 42 8.9 84.2 7.2 126.5-1.2 28.2-4.4 56.3-6.8 84.8-7.1 0.3-14.2 0.2-21.6-0.2z"/>
</svg>