<svg version="1.2" xmlns="http://www.w3.org/2000/svg" viewBox="0 0 509 79" width="509" height="79">
	<title>temple-grec_adobe_express-svg-HEADER-svg</title>
	<style>
		.s0 { fill: #84b5cb } 
		.s1 { fill: #547580 } 
		.s2 { fill: #2c3e50 } 
	</style>
	<path id="Layer" class="s0" d="m246-88c5.7 0 11.4 0 17.2 0.3 6.5 2.8 12.9 5.5 19.4 7.9 33.1 12.5 66.3 24.9 99.5 37.4q36.1 13.5 72.2 27.1c13.6 5.1 27.2 10.2 40.3 15.3-1.6 0-2.8 0.1-4 0.1q-235.6 0-471.2 0c-1.5 0-3-0.1-4.3-0.5 9.7-3.8 19.3-7.1 28.9-10.7q31.6-11.7 63.1-23.5c26.2-9.8 52.4-19.6 78.5-29.4 19.7-7.4 39.4-14.7 59.1-22.1 0.6-0.2 0.9-1.2 1.3-1.9z"/>
	<path id="Layer" class="s1" d="m14.9 0c1.5 0 3 0.1 4.5 0.1q235.6 0 471.2 0c1.2 0 2.4-0.1 4.4-0.1 6.3-0.6 11.4 0.2 16 3 0 9.7 0 19.4-0.4 29.4-5.1 4.3-10.9 3.6-17 3.6-2.1-0.1-3.8-0.1-5.4-0.1q-233.2 0-466.3 0c-2 0-4 0.1-6.4 0.2-6.2 0.6-11.4-0.8-16.5-3.1 0-9.7 0-19.4 0.4-29.4 4.6-4.8 10.3-3.4 15.5-3.6z"/>
	<path id="Layer" class="s2" d="m25.2 77.9c-6.6-4.2-9.4-10.3-9.2-18 0.1-7.6 0-15.3-0.1-23.3 2-0.6 4-0.7 6-0.7q233.1 0 466.3 0c1.6 0 3.3 0 5.4 0.1 0.5 8.5 0.5 16.9 0.4 25.3-0.2 6.8-2.7 12.5-9.3 16.4-6.2 1-11.8 2.1-17.4 2.2-23.8 0.2-47.6 0.1-71.9 0.1-11.7 0-23 0-34.8 0-29.9 0-59.3 0.1-89.2 0-11.4 0-22.3 0.1-33.8 0-29.9 0-59.3 0.1-89.2 0-11.7 0-23 0.1-34.8 0-22.5 0-44.6 0.2-66.7-0.1-7.3-0.1-14.5-1.3-21.7-2z"/>
</svg>