<svg version="1.2" xmlns="http://www.w3.org/2000/svg" viewBox="0 0 510 87" width="510" height="87">
	<title>temple-grec_adobe_express-svg-FOOTER-svg</title>
	<style>
		.s0 { fill: #2c3e50 } 
		.s1 { fill: #547580 } 
	</style>
	<path id="Layer" class="s0" d="m511 53q0 17.5 0 35-256 0-512 0c0-11.4 0-22.7 0.3-34.5 4.6-5.7 9.7-9.7 17-10.3 1.9 0.4 3.6 0.7 5.2 0.7q233.4 0.1 466.8 0c1.9 0 3.9-0.6 6.2-0.9 4.4 2.3 8.6 4.4 12.6 6.7 1.5 0.8 2.6 2.2 3.9 3.3z"/>
	<path id="Layer" class="s1" d="m16.3 43.2c-0.4-7.7-0.3-15.2-0.3-22.6 0-14.8 6.8-21.6 21.6-21.6 0.8 0 1.6 0 3.3 0.1 7.9 0.3 15 0.5 22.5 0.7 10.1 0.1 19.8 0.2 29.5 0.1 1.8 0 3.5-0.7 5.7-1 22.1 0.1 43.7 0 65.8 0.2 7.6 0.2 14.9 0.4 22.7 0.6 9.6 0.1 18.7 0.2 27.8 0.2 2.1 0 4.1-0.7 6.7-1 22.4 0.1 44.4 0 66.7 0.3 7.3 0.3 14.4 0.4 21.9 0.5 9.5 0.1 18.6 0.3 27.7 0.2 2.1 0 4.1-0.7 6.7-1 22.4 0.1 44.4 0 66.7 0.2 7.4 0.4 14.5 0.5 22 0.7 10.2 0.1 20 0.2 29.7 0.1 1.6-0.1 3.2-1.2 4.8-1.9 4 0.6 7.9 1.3 11.9 1.9 9.6 1.4 14.1 9.8 14.3 17.8 0.1 8.1 0 16.2 0.1 24.8-1.9 0.8-3.9 1.4-5.8 1.4q-233.4 0.1-466.8 0c-1.6 0-3.3-0.3-5.2-0.7z"/>
</svg>