<svg version="1.2" xmlns="http://www.w3.org/2000/svg" viewBox="0 0 87 254" width="69" height="200">
	<title>temple-grec_adobe_express-svg-gauche-svg</title>
	<style>
		.s0 { fill: #cbb292 } 
		.s1 { fill: #2c2f38 } 
		.s2 { fill: #7f6e5d } 
	</style>
	<path id="Layer" class="s0" d="m36.9 254.8c-7-0.2-14.1-0.4-21.6-0.7-1.2-8-2.1-15.7-3-23.5-0.5-3.9-1.1-7.8-1.3-11.7-0.7-14-1.5-28-2-42-0.5-14.2-1.1-28.5-0.9-42.7 0.2-14.7 0.9-29.4 2-44 1.2-15.5 3.3-30.9 5.4-46.8 7.8-0.4 15-0.3 22.3 0.3 1.2 12.3 2.9 24.2 3.6 36.1 1.3 23.4 3 46.8 3 70.2-0.1 24.2-1.9 48.5-3.5 72.7-0.7 10.7-2.6 21.4-4 32.1z"/>
	<path id="Layer" class="s1" d="m37.8 43.2c-7.3-0.1-14.5-0.2-22.3-0.2-10.7-1.7-16.5-8.5-16.5-18.7 0-8.8 0-17.6 0.1-26.9 7.3 0.2 14.5 1.4 21.8 1.5 22.1 0.3 44.2 0.1 66.7 0.6 0.4 9.1 0.5 17.8 0.4 26.4-0.1 8.7-6.2 16.5-16.4 17.1-11.6 0-22.7 0.1-33.8 0.2z"/>
	<path id="Layer" class="s2" d="m78.9 144.9c0 2.8 0.1 5.5-0.2 9.1-0.4 8.2-0.5 15.6-0.7 23.1-2 25.3-3.9 50.6-5.9 76.3-1.7 0.8-3.4 1.5-5.2 1.5-9.7 0.1-19.4 0-29.5-0.1 0.9-10.7 2.8-21.4 3.5-32.1 1.6-24.2 3.4-48.5 3.5-72.7 0-23.4-1.7-46.8-3-70.2-0.7-11.9-2.4-23.8-3.6-36.1 11.1-0.6 22.2-0.7 33.8-0.7 1.6 10.6 2.7 21.2 3.8 31.7 0.5 4.9 1.3 9.8 1.5 14.7 0.5 9.8 0.8 19.7 1.1 30.5 0.3 9 0.6 17 0.9 25z"/>
</svg>